<svg xmlns="http://www.w3.org/2000/svg" viewBox="0 0 234.661 200">
  <polygon fill="#5a6378" points="0 75.225 150.449 75.225 75.225 0 0 75.225"/>
  <polygon fill="#60b5cc" points="71.503 154.17 71.503 82.668 0 82.668 71.503 154.17"/>
  <polygon fill="#60b5cc" points="159.436 157.894 234.661 82.668 84.212 82.668 159.436 157.894"/>
  <polygon fill="#7fd13b" points="199.998 40.565 126.314 40.565 160.977 75.225 234.661 75.225 199.998 40.565"/>
  <polygon fill="#7fd13b" points="154.171 163.156 117.33 126.316 80.49 163.156 117.33 200 154.171 163.156"/>
  <polygon fill="#f0ad00" points="78.946 154.173 112.068 121.054 78.946 87.932 78.946 154.173"/>
  <polygon fill="#f0ad00" points="126.314 33.122 192.555 33.122 159.436 0 126.314 33.122"/>
</svg>